<svg xmlns="http://www.w3.org/2000/svg" width="16" height="15.158" viewBox="0 0 16 15.158"><defs><style>.a{fill:#212121;}</style></defs><g transform="translate(0 -1.925)"><g transform="translate(0 1.925)"><g transform="translate(0 0)"><path class="a" d="M15.069,15.206H.931a.938.938,0,0,0,0,1.877H15.069a.938.938,0,0,0,0-1.877ZM7.156,12.757a.929.929,0,0,0,.7.334h.016a.927.927,0,0,0,.693-.312l4.01-4.5A.94.94,0,0,0,11.85,6.71l-1.131.035V2.864a.936.936,0,0,0-.931-.939h-3.6a.929.929,0,0,0-.659.275.946.946,0,0,0-.273.665v3.88L4.14,6.71a.935.935,0,0,0-.866.53A.945.945,0,0,0,3.4,8.252Z" transform="translate(0 -1.925)"/></g></g></g></svg>