<svg xmlns="http://www.w3.org/2000/svg" width="32" height="32.001" viewBox="0 0 32 32.001"><defs><style>.a{fill:#008256;}</style></defs><path class="a" d="M16,32A16,16,0,1,1,32,16,16.019,16.019,0,0,1,16,32ZM16,1.828A14.172,14.172,0,1,0,30.171,16,14.188,14.188,0,0,0,16,1.828Z"/><g transform="translate(8.989 15.112)"><path class="a" d="M21.652,16.416H9.406a.887.887,0,1,1,0-1.775H21.652a.887.887,0,0,1,0,1.775Z" transform="translate(-8.518 -14.641)"/></g><g transform="translate(15.112 8.989)"><path class="a" d="M15.529,22.539a.888.888,0,0,1-.888-.887V9.406a.887.887,0,1,1,1.775,0V21.652A.886.886,0,0,1,15.529,22.539Z" transform="translate(-14.641 -8.518)"/></g></svg>